<svg width="20" height="20" viewBox="0 0 20 20" fill="none" xmlns="http://www.w3.org/2000/svg">
<g clip-path="url(#clip0_15508_2929)">
<path d="M9.99757 6C10.4802 6 10.8684 6.3971 10.8573 6.87962L10.7441 11.8414C10.7348 12.248 10.4026 12.5727 9.99586 12.5727C9.58895 12.5727 9.25659 12.2476 9.24759 11.8408L9.13779 6.87903C9.12711 6.39673 9.51516 6 9.99757 6ZM9.99561 15.4091C9.71985 15.4091 9.48348 15.3121 9.28651 15.1182C9.09258 14.9242 8.99561 14.6879 8.99561 14.4091C8.99561 14.1364 9.09258 13.903 9.28651 13.7091C9.48348 13.5152 9.71985 13.4182 9.99561 13.4182C10.2653 13.4182 10.4986 13.5152 10.6956 13.7091C10.8956 13.903 10.9956 14.1364 10.9956 14.4091C10.9956 14.5939 10.9486 14.7621 10.8547 14.9136C10.7638 15.0652 10.6426 15.1864 10.4911 15.2773C10.3426 15.3652 10.1774 15.4091 9.99561 15.4091Z" fill="#FF3B30"/>
<path d="M3.2978 11.3086L6.10381 6.36472C7.37949 4.11709 8.01733 2.99328 8.8536 2.61799C9.58284 2.29073 10.4172 2.29073 11.1464 2.61799C11.9827 2.99328 12.6205 4.11709 13.8962 6.36473L16.7022 11.3086C17.9499 13.507 18.5738 14.6061 18.4744 15.507C18.3877 16.2929 17.9727 17.0056 17.332 17.4689C16.5976 18 15.3337 18 12.806 18H7.19399C4.66625 18 3.40239 18 2.66795 17.4689C2.02726 17.0056 1.61233 16.2929 1.52563 15.507C1.42624 14.6061 2.05009 13.507 3.2978 11.3086Z" stroke="#FF3B30" stroke-width="1.6" stroke-linecap="round"/>
</g>
<defs>
<clipPath id="clip0_15508_2929">
<rect width="20" height="20" fill="white"/>
</clipPath>
</defs>
</svg>
